<svg xmlns="http://www.w3.org/2000/svg" width="74.407" height="29.609" viewBox="0 0 74.407 29.609">
  <g id="Grupo_10640" data-name="Grupo 10640" transform="translate(-4243.161 7420.45)">
    <path id="Caminho_4999" data-name="Caminho 4999" d="M5.977-12.217a2.81,2.81,0,0,1,2.3,1.182,3.071,3.071,0,0,1,.5,2.571A5.217,5.217,0,0,1,7.545-6.271a16.091,16.091,0,0,1-1.9,1.7A20.483,20.483,0,0,0,4.078-3.226a5.992,5.992,0,0,0-1.2,1.608q2.338.035,4.667-.044h.141a.7.7,0,0,1,.694.4.914.914,0,0,1,0,.782.761.761,0,0,1-.694.439q-.105.009-.22.009Q4.6.079,1.731-.044A.87.87,0,0,1,1.09-.369a.809.809,0,0,1-.141-.7A7.071,7.071,0,0,1,3.3-4.72q.519-.448,1.063-.87a14.422,14.422,0,0,0,2-1.784,4.689,4.689,0,0,0,.664-.958,2,2,0,0,0,.224-1.125,1.36,1.36,0,0,0-.316-.716,1.179,1.179,0,0,0-.668-.4,1.345,1.345,0,0,0-1.09.246,1.482,1.482,0,0,0-.5.712,4.818,4.818,0,0,0-.211.87.686.686,0,0,1-.378.483.846.846,0,0,1-.615.079.762.762,0,0,1-.483-.382,1,1,0,0,1-.088-.62A4.082,4.082,0,0,1,3.876-11.3,2.812,2.812,0,0,1,5.977-12.217Z" transform="translate(4304 -7406)" fill="#fff"/>
    <path id="Caminho_4998" data-name="Caminho 4998" d="M7.969-6.6A5.008,5.008,0,0,1,5.874-4.282a3.62,3.62,0,0,1-3.052.269,2.612,2.612,0,0,1-.85-.508.518.518,0,0,0-.029.107Q1.436-2.5.928-.576a.8.8,0,0,1-.645.62,1.024,1.024,0,0,1-.84-.229.821.821,0,0,1-.254-.869l2.617-9.883a1.027,1.027,0,0,1-.376-.62.852.852,0,0,1,.239-.737A3.8,3.8,0,0,1,4.2-13.442a4,4,0,0,1,2.666.806A4.176,4.176,0,0,1,8.447-9.849,6.011,6.011,0,0,1,7.969-6.6Zm-4.941.469a.642.642,0,0,0,.4.42,1.619,1.619,0,0,0,.669.117,2.341,2.341,0,0,0,1.641-.815,3.715,3.715,0,0,0,.85-1.665,4.086,4.086,0,0,0,.024-1.851,2.163,2.163,0,0,0-1.069-1.44,2.18,2.18,0,0,0-1.7-.2l-.9,3.379a1.028,1.028,0,0,1,.625.747.74.74,0,0,1-.449.845h0a.379.379,0,0,1-.02.049.268.268,0,0,0-.015.034.053.053,0,0,1-.01.02s0,0,0,0A.739.739,0,0,0,3.027-6.133ZM16.484-4.189a.891.891,0,0,1,.708-.605,1.028,1.028,0,0,1,.84.229.744.744,0,0,1,.19.854A3.887,3.887,0,0,1,14.8-1.074a2.713,2.713,0,0,1-1.094-.166,3.087,3.087,0,0,1-3.32,1.074A3.2,3.2,0,0,1,8.135-2.314,6.148,6.148,0,0,1,8.1-5.576,6.777,6.777,0,0,1,9.658-8.569a3,3,0,0,1,3.086-.864,3.23,3.23,0,0,1,2.285,2.139A5.955,5.955,0,0,1,15.1-4.033a7.56,7.56,0,0,1-.381,1.162,1.187,1.187,0,0,0,.3-.059A2.035,2.035,0,0,0,16.484-4.189ZM11.016-1.865a1.413,1.413,0,0,0,1.309-.449,2.025,2.025,0,0,1-.137-1.973.768.768,0,0,1,.522-.41.975.975,0,0,1,.679.068A4.467,4.467,0,0,0,13.4-6.543a1.515,1.515,0,0,0-1.294-1.191,1.545,1.545,0,0,0-1.567.845A6.346,6.346,0,0,0,9.834-5.1a4.694,4.694,0,0,0-.093,1.963A1.512,1.512,0,0,0,11.016-1.865ZM26.563-4.736a.843.843,0,0,1,.41.552,1.117,1.117,0,0,1-.088.688,8.164,8.164,0,0,1-1.016,1.714A4.326,4.326,0,0,1,24.336-.518a5.364,5.364,0,0,1-2.705.469A2.728,2.728,0,0,1,21.24.02a2.669,2.669,0,0,1-1.978-.562,2.324,2.324,0,0,1-.845-1.851.811.811,0,0,1,.464-.771,1.016,1.016,0,0,1,.869,0,.811.811,0,0,1,.464.771.612.612,0,0,0,.762.625,1.985,1.985,0,0,0,.7-.176.861.861,0,0,0,.508-.479,1,1,0,0,0-.171-.845,3.338,3.338,0,0,0-.62-.659q-.205-.176-.41-.342A8.231,8.231,0,0,1,19.893-5.3a3.166,3.166,0,0,1-.352-.566q-.381.664-.713,1.338-.234.459-.479.908a.779.779,0,0,1-.767.449,1.021,1.021,0,0,1-.747-.439.856.856,0,0,1-.039-.918q.156-.293.322-.615.547-1.074,1.23-2.148a6.464,6.464,0,0,1,1.592-1.748l.01-.01a2.653,2.653,0,0,1,1.616-.586,2.974,2.974,0,0,1,1.665.459A.971.971,0,0,1,23.447-9a1.038,1.038,0,0,1,.2.039.942.942,0,0,1,.547.42.772.772,0,0,1,.088.684q-.039.1-.088.205-.1.234-.176.479a1.656,1.656,0,0,0-.073.283,1.287,1.287,0,0,0,0,.293.816.816,0,0,1-.273.645.9.9,0,0,1-.625.264.81.81,0,0,1-.63-.264,1.1,1.1,0,0,1-.278-.645,2.987,2.987,0,0,1,.146-1.045,1.352,1.352,0,0,0-1.152-.029.6.6,0,0,0-.166.4.944.944,0,0,0,.117.513A4.14,4.14,0,0,0,22.2-5.6q.244.2.479.4a3.7,3.7,0,0,1,1.279,1.943,2.8,2.8,0,0,1,.039.8A5.474,5.474,0,0,0,25.332-4.4a.74.74,0,0,1,.542-.42A.993.993,0,0,1,26.563-4.736Zm-.85-2.646a.758.758,0,0,1-.771-.449,1.082,1.082,0,0,1,0-.9.758.758,0,0,1,.771-.449h.879q.293-1.055.6-2.1a.832.832,0,0,1,.669-.625,1.027,1.027,0,0,1,.835.229.817.817,0,0,1,.234.874q-.234.811-.459,1.621h.254a.758.758,0,0,1,.771.449,1.082,1.082,0,0,1,0,.9.758.758,0,0,1-.771.449h-.742q-.352,1.318-.664,2.637-.049.2-.127.439a5.3,5.3,0,0,0-.3,1.528.872.872,0,0,0,.815.952,1.687,1.687,0,0,0,1.44-.732A8.724,8.724,0,0,0,30.137-4.1q.117-.205.205-.371a.828.828,0,0,1,.8-.43,1,1,0,0,1,.747.435.849.849,0,0,1,.02.913.32.32,0,0,0-.039.049,12.445,12.445,0,0,1-1.611,2.344A3.122,3.122,0,0,1,27.783-.029a2.791,2.791,0,0,1-2.153-1.1,2.951,2.951,0,0,1-.454-2.383q.43-1.943.928-3.867Zm11.836,1.3a20.325,20.325,0,0,0-2.09,4.473q-.137.547-.293,1.084a.836.836,0,0,1-.654.62.983.983,0,0,1-.82-.229.861.861,0,0,1-.264-.869q.117-.518.283-1.035.264-1.055.508-2.119l.254-1.074a1.456,1.456,0,0,0,.029-.146,6.953,6.953,0,0,0,.264-1.592V-7.1a5.572,5.572,0,0,0-.488.469,10.885,10.885,0,0,0-1.1,1.5A17.5,17.5,0,0,0,31.2-.586a.82.82,0,0,1-.659.62A1.018,1.018,0,0,1,29.7-.2a.81.81,0,0,1-.239-.869q1.064-3.906,2.1-7.812a.822.822,0,0,1,.654-.63,1.011,1.011,0,0,1,.835.229A.837.837,0,0,1,33.3-8.4a.557.557,0,0,1-.029.1l-.02.1a2.534,2.534,0,0,1,1.768-.918,1.345,1.345,0,0,1,1.025.41,1.866,1.866,0,0,1,.43.977,3.709,3.709,0,0,1,1.367-1.279,1.721,1.721,0,0,1,2.295.723,3.025,3.025,0,0,1,.3,2.085,11.271,11.271,0,0,1-.674,2.144q-.273.674-.459,1.3a3.175,3.175,0,0,0-.107.41l0,.02q0,.02-.01.054t-.01.063a.311.311,0,0,1-.01.044q0,.015,0,.01V-2.2q-.01.127-.01.254a.3.3,0,0,0,0,.039.356.356,0,0,1,0,.059.028.028,0,0,1,.01.02.028.028,0,0,0,.02.01.386.386,0,0,0,.059.015.307.307,0,0,0,.049,0h.02q.078,0,.132,0a.665.665,0,0,0,.142-.034,2.856,2.856,0,0,0,1.274-1.045,7.784,7.784,0,0,0,.825-1.465.74.74,0,0,1,.542-.42.961.961,0,0,1,.688.1.812.812,0,0,1,.41.542,1.117,1.117,0,0,1-.088.688A6.414,6.414,0,0,1,40.791-.42a3.224,3.224,0,0,1-1.729.41A1.652,1.652,0,0,1,37.607-.9a2.851,2.851,0,0,1-.2-1.885,11.376,11.376,0,0,1,.635-1.934,11.076,11.076,0,0,0,.547-1.572,1.848,1.848,0,0,0,.039-.986.161.161,0,0,1-.01-.049.153.153,0,0,0-.029-.039h0q.02.029.015.029s-.011-.01-.024-.029a.009.009,0,0,1-.01.01h-.01q-.02.02-.1.088a2.224,2.224,0,0,0-.176.176A6.8,6.8,0,0,0,37.549-6.084ZM39.17-1.777q.01,0,.029.02l-.029-.029Zm-.01-.049h0a.087.087,0,0,0-.01-.039A.16.16,0,0,1,39.16-1.826ZM38.7-7.432a.028.028,0,0,0,.02-.01l.039-.02ZM42.93-.283a2.623,2.623,0,0,1-.977-1.279A4.078,4.078,0,0,1,41.7-3.174a8.444,8.444,0,0,1,1.924-5.049,4.117,4.117,0,0,1,1.06-.854,2.387,2.387,0,0,1,1.3-.317,3.407,3.407,0,0,1,1.816.732.842.842,0,0,1,.708-.371,1,1,0,0,1,.732.3.807.807,0,0,1,.171.815,18.782,18.782,0,0,1-.654,1.836,10.882,10.882,0,0,0-.928,3.3,1.708,1.708,0,0,0,.1.869l.029.059a.076.076,0,0,1,.015.02.031.031,0,0,0,.02.015.214.214,0,0,1,.044.024l.078.029a.46.46,0,0,0,.371,0A2.553,2.553,0,0,0,49.707-2.8a6.588,6.588,0,0,0,.732-1.46.913.913,0,0,1,.723-.6,1.022,1.022,0,0,1,.84.229.724.724,0,0,1,.176.845,8.92,8.92,0,0,1-1.157,2.2A4.16,4.16,0,0,1,49.1-.068a2.459,2.459,0,0,1-1.6-.024,2.165,2.165,0,0,1-1.187-1A3.536,3.536,0,0,1,45.6-.43,2.365,2.365,0,0,1,42.93-.283Zm1.055-1.455Zm-.479-1.6A2.833,2.833,0,0,0,43.643-2.2a.766.766,0,0,0,.352.459.7.7,0,0,0,.156.01q-.02,0,0-.01a.135.135,0,0,1,.054-.015.659.659,0,0,0,.078-.015.382.382,0,0,1,.078-.029.267.267,0,0,1,.059-.01,1.256,1.256,0,0,0,.288-.2,2.8,2.8,0,0,0,.278-.278,7.42,7.42,0,0,0,1.113-2.109q.166-.43.342-.84.371-.791.693-1.6a3.4,3.4,0,0,0-.63-.547,1.112,1.112,0,0,0-.688-.205q.02,0,0,.01a.186.186,0,0,1-.049.02l-.073.02-.068.015-.039,0q-.01,0,.02-.01a2.639,2.639,0,0,0-.342.205q-.068.059-.205.2a2.8,2.8,0,0,0-.225.259,7.67,7.67,0,0,0-.908,1.724A6.323,6.323,0,0,0,43.506-3.34ZM51.26-.654a.821.821,0,0,1-.649.63,1.017,1.017,0,0,1-.835-.229.833.833,0,0,1-.254-.879q1.016-3.877,2.041-7.744a.821.821,0,0,1,.649-.63,1.017,1.017,0,0,1,.835.229A.833.833,0,0,1,53.3-8.4a.109.109,0,0,0-.01.049.379.379,0,0,1-.02.049,2.537,2.537,0,0,1,1.777-.83A1.772,1.772,0,0,1,56.8-7.686a4.514,4.514,0,0,1-.088,1.841,15.39,15.39,0,0,1-.586,1.821,15.108,15.108,0,0,0-.518,1.563q-.049.186-.088.371v.024a.079.079,0,0,1-.01.034.307.307,0,0,1,0,.049.307.307,0,0,0,0,.049V-1.8h.029q.078,0,.132,0a.665.665,0,0,0,.142-.034A2.817,2.817,0,0,0,57.08-2.881a7.934,7.934,0,0,0,.82-1.465.767.767,0,0,1,.552-.42.961.961,0,0,1,.688.1.817.817,0,0,1,.4.542,1.159,1.159,0,0,1-.078.688A6.492,6.492,0,0,1,57.012-.42,3.544,3.544,0,0,1,55.322,0a1.491,1.491,0,0,1-1.436-.811,3.123,3.123,0,0,1-.127-1.88,12.078,12.078,0,0,1,.615-1.938q.225-.576.391-1.094.088-.293.171-.64a4.933,4.933,0,0,0,.1-.513,2.764,2.764,0,0,0,.01-.4l0-.015a.108.108,0,0,1,0-.034.161.161,0,0,0-.049.01.161.161,0,0,1-.049.01q.01.01-.02.029t-.073.044l-.083.049q-.039.024-.068.039t-.02.015a4.848,4.848,0,0,0-.488.479A15.36,15.36,0,0,0,51.26-.654Zm3.76-6.68h0Z" transform="translate(4244 -7407)" fill="#fff"/>
    <path id="Caminho_5000" data-name="Caminho 5000" d="M7.051-1.6A3.718,3.718,0,0,1,3.467.146a4.909,4.909,0,0,1-1.89-.6A3.2,3.2,0,0,1,.234-1.895,4.351,4.351,0,0,1,.278-5.371,2.833,2.833,0,0,1,3.047-7.187a.862.862,0,0,1,.771.5,1.016,1.016,0,0,1,0,.869.78.78,0,0,1-.771.435,1.139,1.139,0,0,0-.991.493A2.124,2.124,0,0,0,1.67-3.779a2.188,2.188,0,0,0,.259,1.2,1.679,1.679,0,0,0,.952.781,2.69,2.69,0,0,0,1.6.059A1.833,1.833,0,0,0,5.635-2.773a2.92,2.92,0,0,0-.332-2.8A13.95,13.95,0,0,0,4.16-6.963,13.114,13.114,0,0,1,2.676-8.848a3.451,3.451,0,0,1-.566-2.158A2.82,2.82,0,0,1,4.15-13.55a3.642,3.642,0,0,1,3.281.728,1.006,1.006,0,0,1,.107-.127l.039-.039a.8.8,0,0,1,.63-.264.925.925,0,0,1,.64.264.839.839,0,0,1,.259.635,1.015,1.015,0,0,1-.259.635l-.391.449q-.645.742-1.289,1.475a.818.818,0,0,1-.635.264.955.955,0,0,1-.645-.264.871.871,0,0,1-.254-.635.992.992,0,0,1,.254-.635q.176-.205.352-.4a2.183,2.183,0,0,0-1.313-.454.953.953,0,0,0-.981.786,1.831,1.831,0,0,0,.273,1.309,7.346,7.346,0,0,0,.85,1.133l.1.117.391.449a9.337,9.337,0,0,1,1.758,2.52A4.538,4.538,0,0,1,7.051-1.6ZM12.422.078a3.311,3.311,0,0,1-2.261-.767,3.007,3.007,0,0,1-1.05-2.134A8.156,8.156,0,0,1,9.736-6.25a9.63,9.63,0,0,1,.806-1.621A3.9,3.9,0,0,1,11.8-9.15a2.823,2.823,0,0,1,1.382-.371,1.869,1.869,0,0,1,1.313.5,1.728,1.728,0,0,1,.547,1.265,2.911,2.911,0,0,1-.361,1.353.883.883,0,0,1-.107.205.856.856,0,0,1-.127.166A5.689,5.689,0,0,1,10.908-3.75a.009.009,0,0,0-.01.01h-.01a2.873,2.873,0,0,0,.127,1.289,1.041,1.041,0,0,0,.239.361.907.907,0,0,0,.337.234,1.863,1.863,0,0,0,1.23.068A3.38,3.38,0,0,0,14.409-2.8,6.006,6.006,0,0,0,15.42-4.4a.74.74,0,0,1,.542-.42.993.993,0,0,1,.688.088.843.843,0,0,1,.41.552,1.117,1.117,0,0,1-.088.688,6.932,6.932,0,0,1-1.787,2.441A4.473,4.473,0,0,1,12.422.078Zm.83-7.793h0a.148.148,0,0,0,0-.044q0-.015,0-.01v.015A.16.16,0,0,0,13.252-7.715ZM11.914-6.65a7.973,7.973,0,0,0-.42.82,3.962,3.962,0,0,0,1.523-1.279.04.04,0,0,1,.01-.029,1.615,1.615,0,0,0,.225-.508V-7.7a.322.322,0,0,0-.054-.02.306.306,0,0,0-.083-.01,1.072,1.072,0,0,0-.688.376A3.874,3.874,0,0,0,11.914-6.65Zm3.818,3.418a.826.826,0,0,1-.405-.552,1.188,1.188,0,0,1,.083-.688A9.189,9.189,0,0,0,16.25-8.1a.832.832,0,0,1,.449-.781.974.974,0,0,1,.84.01.929.929,0,0,1,.518.771,2.2,2.2,0,0,0,.21.713,1.455,1.455,0,0,0,.493.605.687.687,0,0,0,.732.01,2.667,2.667,0,0,0,.986-.937,6.661,6.661,0,0,0,.615-1.24.921.921,0,0,1,.713-.591,1,1,0,0,1,.825.215.784.784,0,0,1,.2.864q-.176.518-.371,1.064A13.876,13.876,0,0,0,21.4-2.734a2.744,2.744,0,0,0,.039.518v.01a.106.106,0,0,1,.02.039l.02.059a.452.452,0,0,1,.015.054l0,.024.039.059a.1.1,0,0,1,.02.049.114.114,0,0,0,.029.02.114.114,0,0,1,.029.02l.015.015s0,0,0,0l-.049-.024a.415.415,0,0,1,.059.039,1.04,1.04,0,0,1,.107.01.492.492,0,0,0,.2,0,.691.691,0,0,0,.186-.059A3.5,3.5,0,0,0,23.34-3.018a11.425,11.425,0,0,0,.85-1.455.761.761,0,0,1,.757-.449,1.021,1.021,0,0,1,.747.439.885.885,0,0,1,.049.928,11.608,11.608,0,0,1-1.235,1.973A4.24,4.24,0,0,1,22.686-.2a2.422,2.422,0,0,1-1.821-.063,2.034,2.034,0,0,1-1.138-1.382,7.125,7.125,0,0,1,.166-3.369q-.117.029-.234.049A2.565,2.565,0,0,1,17.646-5.4a15.758,15.758,0,0,1-.674,1.846.772.772,0,0,1-.552.41A.993.993,0,0,1,15.732-3.232ZM25.85-.322a3.428,3.428,0,0,1-1.265-1.89A8.437,8.437,0,0,1,24.3-4.531a17.946,17.946,0,0,1,.459-4.287.783.783,0,0,1,.625-.63,1.023,1.023,0,0,1,.835.229.86.86,0,0,1,.278.879,15.425,15.425,0,0,0-.4,3.418,11.548,11.548,0,0,0,.088,1.665A2.264,2.264,0,0,0,26.738-1.9l.029.029.02.02,0,0a.057.057,0,0,0,.015.01l.029.015a.028.028,0,0,1,.02.01.246.246,0,0,1,.029-.059l.02-.039a4.681,4.681,0,0,0,.254-.586,2.019,2.019,0,0,1-.029-1.787.817.817,0,0,1,.664-.439q.566-1.914,1.045-3.857a.774.774,0,0,1,.63-.625,1.045,1.045,0,0,1,.84.234.832.832,0,0,1,.269.869q-.625,2.6-1.406,5.146a.379.379,0,0,1,.049.02,1.079,1.079,0,0,0,.742.01,2.035,2.035,0,0,0,1.465-1.26.891.891,0,0,1,.708-.605,1.028,1.028,0,0,1,.84.229.744.744,0,0,1,.19.854,3.907,3.907,0,0,1-3.428,2.637,2.724,2.724,0,0,1-1.143-.186,2.6,2.6,0,0,1-.781,1.016,1.532,1.532,0,0,1-.986.254A1.947,1.947,0,0,1,25.85-.322Zm8.613.244A2.678,2.678,0,0,1,32.92-.161a2.267,2.267,0,0,1-1.191-.981,2.95,2.95,0,0,1-.366-1.411,7.143,7.143,0,0,1,.142-1.47,37.915,37.915,0,0,1,1.064-4.033q.127-.4.244-.8a.84.84,0,0,1,.669-.62,1.018,1.018,0,0,1,.84.229.8.8,0,0,1,.229.869l-.215.723q-.547,1.709-.957,3.457a.028.028,0,0,1-.01.02A8.042,8.042,0,0,0,33.164-2.9a3.94,3.94,0,0,0,.01.479l0,.015a.311.311,0,0,1,.01.044A.385.385,0,0,0,33.2-2.3q.01.049.02.093a.334.334,0,0,1,.01.063.009.009,0,0,1,.01.01h0a.028.028,0,0,1,.01.02.13.13,0,0,0,.024.034.13.13,0,0,1,.024.034.114.114,0,0,0,.02.029q.01.01.01.015s0,0-.01,0a1.066,1.066,0,0,0,.088.078.009.009,0,0,0,.01.01.114.114,0,0,0,.029.02.712.712,0,0,0,.3.122.808.808,0,0,0,.347-.063,2.844,2.844,0,0,0,1.27-1.089,10.077,10.077,0,0,0,.83-1.5.728.728,0,0,1,.728-.464,1.024,1.024,0,0,1,.747.439.925.925,0,0,1,.078.942,9.261,9.261,0,0,1-1.284,2.09A3.857,3.857,0,0,1,34.463-.078Zm0-11.006a.857.857,0,0,1-.635-.269.87.87,0,0,1-.264-.63v-.039a.882.882,0,0,1,.264-.64.857.857,0,0,1,.635-.269.857.857,0,0,1,.635.269.882.882,0,0,1,.264.64v.039a.87.87,0,0,1-.264.63A.857.857,0,0,1,34.463-11.084ZM39.512.078a3.311,3.311,0,0,1-2.261-.767A3.007,3.007,0,0,1,36.2-2.822a8.156,8.156,0,0,1,.625-3.428,9.85,9.85,0,0,1,.8-1.621,3.82,3.82,0,0,1,1.26-1.279,2.822,2.822,0,0,1,1.382-.371,1.869,1.869,0,0,1,1.313.5,1.745,1.745,0,0,1,.542,1.377A3.216,3.216,0,0,1,41.66-6.2a.828.828,0,0,1-.8.43,1.017,1.017,0,0,1-.752-.435.815.815,0,0,1-.015-.9.114.114,0,0,1,.02-.029,1.615,1.615,0,0,0,.225-.508V-7.7a.322.322,0,0,0-.054-.02.306.306,0,0,0-.083-.01,1.072,1.072,0,0,0-.688.376,3.874,3.874,0,0,0-.513.7A8.857,8.857,0,0,0,38.14-4.59a3.561,3.561,0,0,0-.034,2.139,1.041,1.041,0,0,0,.239.361.907.907,0,0,0,.337.234,1.863,1.863,0,0,0,1.23.068A3.38,3.38,0,0,0,41.5-2.8,6.006,6.006,0,0,0,42.51-4.4a.74.74,0,0,1,.542-.42.993.993,0,0,1,.688.088.843.843,0,0,1,.41.552,1.117,1.117,0,0,1-.088.688,6.932,6.932,0,0,1-1.787,2.441A4.473,4.473,0,0,1,39.512.078Zm.83-7.793h0a.148.148,0,0,0,0-.044q0-.015,0-.01v.015A.16.16,0,0,0,40.342-7.715ZM45.908.078a3.311,3.311,0,0,1-2.261-.767A3.007,3.007,0,0,1,42.6-2.822a8.156,8.156,0,0,1,.625-3.428,9.63,9.63,0,0,1,.806-1.621A3.9,3.9,0,0,1,45.283-9.15a2.822,2.822,0,0,1,1.382-.371,1.869,1.869,0,0,1,1.313.5,1.728,1.728,0,0,1,.547,1.265,2.911,2.911,0,0,1-.361,1.353.883.883,0,0,1-.107.205.856.856,0,0,1-.127.166A5.689,5.689,0,0,1,44.395-3.75a.009.009,0,0,0-.01.01h-.01A2.874,2.874,0,0,0,44.5-2.451a1.041,1.041,0,0,0,.239.361.907.907,0,0,0,.337.234,1.863,1.863,0,0,0,1.23.068A3.38,3.38,0,0,0,47.9-2.8,6.006,6.006,0,0,0,48.906-4.4a.74.74,0,0,1,.542-.42.993.993,0,0,1,.688.088.843.843,0,0,1,.41.552,1.117,1.117,0,0,1-.088.688,6.932,6.932,0,0,1-1.787,2.441A4.473,4.473,0,0,1,45.908.078Zm.83-7.793h0a.148.148,0,0,0,0-.044q0-.015,0-.01v.015A.16.16,0,0,0,46.738-7.715ZM45.4-6.65a7.973,7.973,0,0,0-.42.82A3.962,3.962,0,0,0,46.5-7.109a.04.04,0,0,1,.01-.029,1.615,1.615,0,0,0,.225-.508V-7.7a.322.322,0,0,0-.054-.02.306.306,0,0,0-.083-.01,1.072,1.072,0,0,0-.688.376A3.874,3.874,0,0,0,45.4-6.65Z" transform="translate(4267 -7391)" fill="#fff"/>
  </g>
</svg>
